# AST/ASF file generated using VICON BodyLanguage
# -----------------------------------------------
:version 1.10
:name VICON
:units
  mass 1.0
  length 0.45
  angle deg
:documentation
   .ast/.asf automatically generated from VICON data using
   VICON BodyBuilder and BodyLanguage model FoxedUp or BRILLIANT.MOD
:root
   order TX TY TZ RX RY RZ
   axis XYZ
   position 0 0 0  
   orientation 0 0 0 
:bonedata
  begin
     id 1 
     name lhipjoint
     direction 0.692814 -0.645514 0.321437 
     length 2.38754 
     axis 0 0 0  XYZ
  end
  begin
     id 2 
     name lfemur
     direction 0.34202 -0.939693 0  
     length 6.41921  
     axis 0 0 20  XYZ
    dof rx ry rz
    limits (-160.0 20.0)
           (-70.0 70.0)
           (-60.0 70.0)
  end
  begin
     id 3 
     name ltibia
     direction 0.34202 -0.939693 0   
     length 6.98247   
     axis 0 0 20   XYZ
    dof rx
    limits (-10.0 170.0)
  end
  begin
     id 4 
     name lfoot
     direction 0.0947186 -0.260237 0.960888   
     length 1.83034   
     axis -90 7.62852e-016 20   XYZ
    dof rx rz
    limits (-45.0 90.0)
           (-70.0 20.0)
  end
  begin
     id 5 
     name ltoes
     direction 1.53538e-011 -4.21952e-011 1   
     length 0.920499   
     axis -90 7.62852e-016 20   XYZ
    dof rx
    limits (-90.0 20.0)
  end
  begin
     id 6 
     name rhipjoint
     direction -0.631686 -0.693949 0.345555   
     length 2.2209  
     axis 0 0 0  XYZ 
  end
  begin
     id 7 
     name rfemur
     direction -0.34202 -0.939693 0   
     length 6.49542   
     axis 0 0 -20   XYZ
    dof rx ry rz
    limits (-160.0 20.0)
           (-70.0 70.0)
           (-70.0 60.0)
  end
  begin
     id 8 
     name rtibia
     direction -0.34202 -0.939693 0   
     length 7.21712   
     axis 0 0 -20   XYZ
    dof rx
    limits (-10.0 170.0)
 end
 begin
     id 9 
     name rfoot
     direction -0.0825378 -0.226771 0.970444   
     length 1.89724  
     axis -90 -7.62852e-016 -20   XYZ
    dof rx rz
    limits (-45.0 90.0)
           (-20.0 70.0)
  end
  begin
     id 10 
     name rtoes
     direction -1.53515e-011 -4.22016e-011 1   
     length 0.955868   
     axis -90 -7.62852e-016 -20   XYZ
    dof rx
    limits (-90.0 20.0)
  end
  begin
     id 11 
     name lowerback
     direction -0.0104711 0.984802 -0.173368   
     length 1.84931   
     axis 0 0 0   XYZ
    dof rx ry rz
    limits (-20.0 45.0)
           (-30.0 30.0)
           (-30.0 30.0)
  end
  begin
     id 12 
     name upperback
     direction -0.00286433 0.999996 -0.000382853   
     length 1.85768   
     axis 0 0 0   XYZ
    dof rx ry rz
    limits (-20.0 45.0)
           (-30.0 30.0)
           (-30.0 30.0)
  end
  begin
     id 13 
     name thorax
     direction 0.00167534 0.996793 0.0800069   
     length 1.92   
     axis 0 0 0   XYZ
    dof rx ry rz
    limits (-20.0 45.0)
           (-30.0 30.0)
           (-30.0 30.0)
  end
  begin
     id 14 
     name lowerneck
     direction -0.0672491 0.995415 0.068018   
     length 1.58923   
     axis 0 0 0   XYZ
    dof rx ry rz
    limits (-20.0 45.0)
           (-30.0 30.0)
           (-30.0 30.0)
  end
  begin
     id 15 
     name upperneck
     direction 0.0958019 0.982476 -0.159884   
     length 1.60189   
     axis 0 0 0   XYZ
    dof rx ry rz
    limits (-20.0 45.0)
           (-30.0 30.0)
           (-30.0 30.0)
  end
  begin
     id 16
     name head
     direction 0.032989 0.997338 -0.0650226  
     length 1.61681  
     axis 0 0 0   XYZ
    dof rx ry rz
    limits (-20.0 45.0)
           (-30.0 30.0)
           (-30.0 30.0)
  end
  begin
     id 17 
     name lclavicle
     direction 0.954279 0.298875 -0.00496069  
     length 2.99449  
     axis 0 0 0   XYZ
    dof ry rz
    limits (-20.0 10.0)
           (0.0 20.0)
  end
  begin
     id 18 
     name lhumerus
     direction 1 -4.48985e-011 -4.2057e-027   
     length 4.79185   
     axis 180 -30 -90   XYZ
    dof rx ry rz
    limits (-60.0 90.0)
           (-90.0 90.0)
           (-90.0 90.0)
  end
  begin
     id 19
     name lradius
     direction 1 -4.48945e-011 1.15441e-028   
     length 2.65553   
     axis 180 -30 -90   XYZ
    dof rx
    limits (-10.0 170.0)
  end
  begin
     id 20
     name lwrist
     direction 1 -4.4899e-011 4.8894e-028   
     length 1.32777   
     axis -2.56392e-016 90 90   XYZ
    dof ry
    limits (-180.0 0.0)
 end
  begin
     id 21 
     name lhand
     direction 1 -4.48908e-011 9.7788e-028   
     length 0.743904   
     axis -6.23971e-016 90 90   XYZ
    dof rx rz
    limits (-90.0 90.0)
           (-45.0 45.0)
  end
  begin
     id 22 
     name lfingers
     direction 1 -4.49068e-011 1.95576e-027   
     length 0.599754   
     axis -1.24794e-015 90 90   XYZ
    dof rx
    limits (0.0 90.0)
  end
  begin
     id 23
     name lthumb
     direction 0.707107 -6.34883e-011 0.707107   
     length 0.861131   
     axis -90 45 2.85299e-015   XYZ
    dof rx rz
    limits (-45.0 45.0)
           (-45.0 45.0)
  end
  begin
     id 24 
     name rclavicle
     direction -0.957921 0.286916 0.00811568   
     length 3.06817  
     axis 0 0 0   XYZ 
    dof ry rz
    limits (-10.0 20.0)
           (-20.0 0.0)
  end
  begin
     id 25 
     name rhumerus
     direction -1 -4.48971e-011 -3.07942e-027  
     length 4.77254   
     axis 180 30 90   XYZ
    dof rx ry rz
    limits (-90.0 60.0)
           (-90.0 90.0)
           (-90.0 90.0)
  end
  begin
     id 26 
     name rradius
     direction -1 -4.48957e-011 -9.6815e-028   
     length 2.75995   
     axis 180 30 90   XYZ
    dof rx
    limits (-10.0 170.0)
  end
  begin
     id 27 
     name rwrist
     direction -1 -4.48979e-011 4.8894e-028   
     length 1.37997   
     axis -2.56392e-016 -90 -90   XYZ
    dof ry
    limits (-180.0 0.0)
  end
  begin
     id 28
     name rhand
     direction -1 -4.48906e-011 9.7788e-028   
     length 0.701619   
     axis -6.23971e-016 -90 -90   XYZ
    dof rx rz
    limits (-90.0 90.0)
           (-45.0 45.0)
  end
  begin
     id 29
     name rfingers
     direction -1 -4.49018e-011 1.95576e-027   
     length 0.565663   
     axis -1.24794e-015 -90 -90   XYZ
    dof rx
    limits (0.0 90.0)
  end
  begin
     id 30
     name rthumb
     direction -0.707107 -6.34881e-011 0.707107   
     length 0.812183   
     axis -90 -45 -2.85299e-015   XYZ
    dof rx rz
    limits (-45.0 45.0)
           (-45.0 45.0)
  end
:hierarchy
  begin
    root lhipjoint rhipjoint lowerback
    lhipjoint lfemur
    lfemur ltibia
    ltibia lfoot
    lfoot ltoes
    rhipjoint rfemur
    rfemur rtibia
    rtibia rfoot
    rfoot rtoes
    lowerback upperback
    upperback thorax
    thorax lowerneck lclavicle rclavicle
    lowerneck upperneck
    upperneck head
    lclavicle lhumerus
    lhumerus lradius
    lradius lwrist
    lwrist lhand lthumb
    lhand lfingers
    rclavicle rhumerus
    rhumerus rradius
    rradius rwrist
    rwrist rhand rthumb
    rhand rfingers
  end

#!OML:ASF F:\VICON\USERDATA\INSTALL\rory3\rory3.ASF
:FULLY-SPECIFIED
:DEGREES
1314
root 0.235484 15.2566 -1.76781 0.164585 -1.02239 -0.861211
lowerback 17.4372 0.727184 -3.24957
upperback 5.50449 0.272273 -2.46382
thorax -3.87697 0.1396 -0.819056
lowerneck -2.88354 -7.80517 -18.2963
upperneck 15.7842 -9.64637 4.47644
head 6.45197 -5.4253 3.65908
rclavicle 1.15295e-014 -2.22639e-014
rhumerus 34.529 16.0224 -56.3763
rradius 132.048
rwrist -19.7421
rhand 19.6472 7.81292
rfingers 7.12502
rthumb 44.2063 -15.9926
lclavicle 1.15295e-014 -2.22639e-014
lhumerus -5.5318 -25.6216 72.6804
lradius 121.221
lwrist 0.728857
lhand 5.40961 35.2598
lfingers 7.12502
lthumb 30.7606 62.7066
rfemur -24.9155 11.3741 16.5288
rtibia 46.4951
rfoot -16.8413 -12.447
rtoes -20.1868
lfemur -23.9051 -8.77726 -14.7092
ltibia 44.5038
lfoot -16.4001 6.47127
ltoes -15.7896
1315
root 0.236379 15.2545 -1.76746 0.193815 -1.06294 -0.892249
lowerback 17.425 0.739078 -3.19043
upperback 5.54313 0.300386 -2.45282
thorax -3.82962 0.152783 -0.846075
lowerneck -3.0642 -7.8247 -18.3171
upperneck 15.7782 -9.6525 4.57863
head 6.48681 -5.42032 3.68791
rclavicle -9.14409e-015 2.14687e-014
rhumerus 34.2189 16.0942 -56.2735
rradius 131.928
rwrist -20.3885
rhand 19.7339 8.67455
rfingers 7.12502
rthumb 44.2871 -15.1004
lclavicle -9.14409e-015 2.14687e-014
lhumerus -5.29244 -25.6266 72.5979
lradius 121.262
lwrist 0.692957
lhand 5.84233 35.1716
lfingers 7.12502
lthumb 31.1731 62.5399
rfemur -24.9598 11.3949 16.5574
rtibia 46.5006
rfoot -16.8188 -12.4636
rtoes -20.3012
lfemur -23.922 -8.73613 -14.6702
ltibia 44.5062
lfoot -16.3722 6.45183
ltoes -15.8213
1316
root 0.236907 15.2527 -1.76726 0.208864 -1.11093 -0.794251
lowerback 17.4219 0.752626 -3.29013
upperback 5.62246 0.303446 -2.47244
thorax -3.74363 0.152899 -0.810395
lowerneck -3.39973 -7.8752 -18.4787
upperneck 15.8336 -9.6764 4.79812
head 6.58344 -5.42419 3.76759
rclavicle 7.95139e-016 9.54166e-015
rhumerus 33.9937 16.1606 -56.2049
rradius 131.804
rwrist -21.185
rhand 19.3361 8.86872
rfingers 7.12502
rthumb 43.9161 -15.0454
lclavicle 7.95139e-016 9.54166e-015
lhumerus -4.9626 -25.5604 72.4422
lradius 121.253
lwrist 0.751715
lhand 6.18373 35.2512
lfingers 7.12502
lthumb 31.4984 62.5565
rfemur -25.0093 11.4259 16.4367
rtibia 46.531
rfoot -16.8195 -12.4505
rtoes -20.2647
lfemur -23.9224 -8.71336 -14.776
ltibia 44.5007
lfoot -16.4111 6.47792
ltoes -15.9922
1317
root 0.23755 15.2522 -1.76656 0.191186 -1.11275 -0.699994
lowerback 17.4493 0.743289 -3.38369
upperback 5.68469 0.27647 -2.47364
thorax -3.69172 0.1385 -0.753147
lowerneck -3.58081 -7.91732 -18.6767
upperneck 15.8171 -9.71317 5.00812
head 6.63402 -5.43631 3.8549
rclavicle 1.66979e-014 5.1684e-014
rhumerus 33.8017 16.0905 -56.3155
rradius 131.818
rwrist -21.8686
rhand 19.4368 8.66265
rfingers 7.12502
rthumb 44.0101 -15.2165
lclavicle 1.66979e-014 5.1684e-014
lhumerus -4.72146 -25.5088 72.3539
lradius 121.271
lwrist 0.812787
lhand 6.23367 35.3787
lfingers 7.12502
lthumb 31.546 62.6747
rfemur -25.0096 11.4246 16.3239
rtibia 46.5691
rfoot -16.8302 -12.4012
rtoes -19.9348
lfemur -23.8993 -8.72584 -14.888
ltibia 44.4966
lfoot -16.4524 6.51204
ltoes -16.0486
1318
root 0.236928 15.2512 -1.76586 0.150234 -1.09415 -0.60494
lowerback 17.5133 0.75152 -3.47361
upperback 5.72579 0.270579 -2.46933
thorax -3.68173 0.134972 -0.697021
lowerneck -3.65856 -7.99197 -18.7629
upperneck 15.7831 -9.79294 5.02697
head 6.65225 -5.47555 3.86228
rclavicle -5.96354e-015 -1.19271e-014
rhumerus 33.4561 15.7956 -56.649
rradius 132.032
rwrist -22.236
rhand 20.1619 8.2497
rfingers 7.12502
rthumb 44.6859 -15.3725
lclavicle -5.96354e-015 -1.19271e-014
lhumerus -4.61356 -25.5355 72.3511
lradius 121.353
lwrist 0.919067
lhand 6.14797 35.3428
lfingers 7.12502
lthumb 31.4643 62.6547
rfemur -24.9769 11.3904 16.2331
rtibia 46.6094
rfoot -16.8185 -12.4056
rtoes -19.8825
lfemur -23.8465 -8.72057 -15.0011
ltibia 44.4818
lfoot -16.464 6.44388
ltoes -15.7116
1319
root 0.236721 15.2494 -1.76555 0.0993469 -1.0937 -0.639736
lowerback 17.5894 0.755005 -3.42342
upperback 5.77008 0.283069 -2.43267
thorax -3.67498 0.140699 -0.689662
lowerneck -3.65704 -8.08035 -18.7335
upperneck 15.6634 -9.89392 4.90175
head 6.61874 -5.52564 3.80661
rclavicle -5.56597e-015 9.54166e-015
rhumerus 33.1984 15.5284 -56.9361
rradius 132.425
rwrist -22.073
rhand 20.3998 7.44021
rfingers 7.12502
rthumb 44.9073 -16.0958
lclavicle -5.56597e-015 9.54166e-015
lhumerus -4.55532 -25.5682 72.3657
lradius 121.487
lwrist 0.967441
lhand 6.01934 35.3058
lfingers 7.12502
lthumb 31.3418 62.6416
rfemur -24.9153 11.3983 16.2893
rtibia 46.6276
rfoot -16.8326 -12.4421
rtoes -20.1499
lfemur -23.7868 -8.69552 -14.9715
ltibia 44.4787
lfoot -16.4056 6.40628
ltoes -15.6334
1320
root 0.235524 15.2481 -1.76602 0.100865 -1.09742 -0.640536
lowerback 17.5709 0.785422 -3.40945
upperback 5.8093 0.328396 -2.41991
thorax -3.62404 0.162242 -0.692721
lowerneck -3.53019 -8.14836 -18.6032
upperneck 15.4689 -10.0068 4.80687
head 6.53573 -5.57332 3.75096
rclavicle 1.74931e-014 4.6118e-014
rhumerus 33.0137 15.2167 -57.1467
rradius 132.767
rwrist -21.8439
rhand 20.3199 7.19288
rfingers 7.12502
rthumb 44.833 -16.3722
lclavicle 1.74931e-014 4.6118e-014
lhumerus -4.31811 -25.6797 72.307
lradius 121.66
lwrist 0.973546
lhand 6.21753 35.502
lfingers 7.12502
lthumb 31.5306 62.801
rfemur -24.9288 11.4176 16.2978
rtibia 46.6383
rfoot -16.7976 -12.5021
rtoes -20.3279
lfemur -23.8013 -8.68001 -14.9663
ltibia 44.4746
lfoot -16.3973 6.44528
ltoes -16.1562
1321
root 0.234282 15.2476 -1.76622 0.0981373 -1.07141 -0.576834
lowerback 17.5338 0.800185 -3.48378
upperback 5.84815 0.338929 -2.41861
thorax -3.56344 0.166312 -0.650708
lowerneck -3.43736 -8.19291 -18.5335
upperneck 15.3563 -10.0893 4.79455
head 6.48851 -5.60725 3.73276
rclavicle 1.27222e-014 -1.59028e-015
rhumerus 32.7784 14.9406 -57.4206
rradius 132.979
rwrist -21.7328
rhand 20.4001 7.30424
rfingers 7.12502
rthumb 44.9076 -16.2316
lclavicle 1.27222e-014 -1.59028e-015
lhumerus -3.97142 -25.7753 72.1906
lradius 121.864
lwrist 1.04994
lhand 6.40441 35.9057
lfingers 7.12502
lthumb 31.7086 63.1696
rfemur -24.9351 11.4424 16.2287
rtibia 46.6429
rfoot -16.7963 -12.5707
rtoes -20.4114
lfemur -23.8172 -8.69559 -15.0356
ltibia 44.4729
lfoot -16.4302 6.47674
ltoes -16.4261
1322
root 0.234468 15.2495 -1.76409 0.101659 -1.07244 -0.575478
lowerback 17.48 0.807236 -3.46417
upperback 5.8935 0.356499 -2.41264
thorax -3.48706 0.173946 -0.657956
lowerneck -3.44616 -8.25313 -18.4564
upperneck 15.367 -10.1713 4.76303
head 6.49721 -5.6446 3.70212
rclavicle 1.15295e-014 -2.38542e-015
rhumerus 32.5757 14.7093 -57.7302
rradius 133.215
rwrist -21.3807
rhand 20.6569 7.5344
rfingers 7.12502
rthumb 45.1466 -15.9072
lclavicle 1.15295e-014 -2.38542e-015
lhumerus -3.90504 -25.8545 72.1517
lradius 121.915
lwrist 1.1259
lhand 6.18933 35.8698
lfingers 7.12502
lthumb 31.5037 63.174
rfemur -24.9313 11.453 16.2244
rtibia 46.6449
rfoot -16.8214 -12.5497
rtoes -20.2747
lfemur -23.8025 -8.6884 -15.0473
ltibia 44.4742
lfoot -16.4365 6.48198
ltoes -16.3781
1323
root 0.235333 15.2496 -1.76198 0.114366 -1.12034 -0.575483
lowerback 17.4381 0.815853 -3.46273
upperback 5.93746 0.373036 -2.38829
thorax -3.4186 0.180868 -0.635429
lowerneck -3.45945 -8.31662 -18.3865
upperneck 15.3363 -10.251 4.70076
head 6.492 -5.68156 3.66283
rclavicle 9.14409e-015 -3.97569e-015
rhumerus 32.6155 14.5084 -57.9246
rradius 133.465
rwrist -20.9606
rhand 20.8286 7.93299
rfingers 7.12502
rthumb 45.3062 -15.4449
lclavicle 9.14409e-015 -3.97569e-015
lhumerus -4.07311 -25.8308 72.2302
lradius 121.765
lwrist 1.13058
lhand 5.78678 35.4137
lfingers 7.12502
lthumb 31.1201 62.7922
rfemur -24.9524 11.48 16.2174
rtibia 46.6502
rfoot -16.8485 -12.5064
rtoes -20.2492
lfemur -23.7842 -8.64828 -15.0468
ltibia 44.4835
lfoot -16.4843 6.44118
ltoes -15.8623
1324
root 0.236278 15.2481 -1.76231 0.111823 -1.17492 -0.608741
lowerback 17.4266 0.811738 -3.41951
upperback 5.96875 0.377776 -2.36116
thorax -3.37943 0.182542 -0.631678
lowerneck -3.35573 -8.35579 -18.3393
upperneck 15.2328 -10.3281 4.70047
head 6.44705 -5.71406 3.65306
rclavicle 9.93923e-015 9.54166e-015
rhumerus 32.7471 14.3637 -58.0353
rradius 133.656
rwrist -20.7284
rhand 20.6961 8.07724
rfingers 7.12502
rthumb 45.183 -15.3499
lclavicle 9.93923e-015 9.54166e-015
lhumerus -4.13185 -25.8102 72.3051
lradius 121.632
lwrist 1.09863
lhand 5.63053 35.1045
lfingers 7.12502
lthumb 30.9712 62.5115
rfemur -24.9609 11.5489 16.2525
rtibia 46.6628
rfoot -16.8831 -12.511
rtoes -20.346
lfemur -23.7821 -8.58458 -15.0125
ltibia 44.5045
lfoot -16.5165 6.47219
ltoes -15.9322
1325
root 0.23815 15.2473 -1.76176 0.0996323 -1.20971 -0.641891
lowerback 17.4196 0.798264 -3.33845
upperback 5.97959 0.374706 -2.35233
thorax -3.36408 0.181145 -0.667331
lowerneck -3.21963 -8.37061 -18.2705
upperneck 15.1671 -10.3862 4.73435
head 6.40663 -5.73626 3.65449
rclavicle -1.11319e-014 2.14687e-014
rhumerus 32.7755 14.2778 -58.1674
rradius 133.767
rwrist -20.6391
rhand 20.5169 8.21654
rfingers 7.12502
rthumb 45.0163 -15.2766
lclavicle -1.11319e-014 2.14687e-014
lhumerus -4.10599 -25.8101 72.3315
lradius 121.59
lwrist 1.01842
lhand 5.69422 34.889
lfingers 7.12502
lthumb 31.0319 62.2844
rfemur -24.9443 11.5745 16.2872
rtibia 46.6773
rfoot -16.923 -12.5194
rtoes -20.4146
lfemur -23.7693 -8.57674 -14.9849
ltibia 44.5256
lfoot -16.5325 6.50381
ltoes -15.9263
